<svg xmlns="http://www.w3.org/2000/svg" width="100" height="100" viewBox="0 0 100 100"><path fill="#464646" d="M29 29L29 8L39.5 8ZM50 8L71 8L71 18.5ZM71 71L71 92L60.5 92ZM50 92L29 92L29 81.5ZM8 50L8 29L18.5 29ZM71 29L92 29L92 39.5ZM92 50L92 71L81.5 71ZM29 71L8 71L8 60.5Z"/><path fill="#e3e3e3" d="M29 8L29 29L8 29ZM92 29L71 29L71 8ZM71 92L71 71L92 71ZM8 71L29 71L29 92Z"/><path fill="#59c7a3" d="M37 42a5,5 0 1,1 10,0a5,5 0 1,1 -10,0M53 42a5,5 0 1,1 10,0a5,5 0 1,1 -10,0M53 58a5,5 0 1,1 10,0a5,5 0 1,1 -10,0M37 58a5,5 0 1,1 10,0a5,5 0 1,1 -10,0"/></svg>