<svg xmlns="http://www.w3.org/2000/svg" width="100" height="100" viewBox="0 0 100 100"><path fill="#a83866" d="M32.5 18.5a7,7 0 1,1 14,0a7,7 0 1,1 -14,0M53.5 18.5a7,7 0 1,1 14,0a7,7 0 1,1 -14,0M53.5 81.5a7,7 0 1,1 14,0a7,7 0 1,1 -14,0M32.5 81.5a7,7 0 1,1 14,0a7,7 0 1,1 -14,0M11.5 39.5a7,7 0 1,1 14,0a7,7 0 1,1 -14,0M74.5 39.5a7,7 0 1,1 14,0a7,7 0 1,1 -14,0M74.5 60.5a7,7 0 1,1 14,0a7,7 0 1,1 -14,0M11.5 60.5a7,7 0 1,1 14,0a7,7 0 1,1 -14,0"/><path fill="#e8e8e8" d="M18.5 8L29 18.5L18.5 29L8 18.5ZM92 18.5L81.5 29L71 18.5L81.5 8ZM81.5 92L71 81.5L81.5 71L92 81.5ZM8 81.5L18.5 71L29 81.5L18.5 92Z"/><path fill="#d1759b" d="M29 29L50 29L50 39.5L29 39.5ZM29 39.5L39.5 39.5L39.5 50L29 50ZM50 39.5L39.5 50L39.5 39.5ZM71 29L71 50L60.5 50L60.5 29ZM60.5 29L60.5 39.5L50 39.5L50 29ZM60.5 50L50 39.5L60.5 39.5ZM71 71L50 71L50 60.5L71 60.5ZM71 60.5L60.5 60.5L60.5 50L71 50ZM50 60.5L60.5 50L60.5 60.5ZM29 71L29 50L39.5 50L39.5 71ZM39.5 71L39.5 60.5L50 60.5L50 71ZM39.5 50L50 60.5L39.5 60.5Z"/></svg>