<svg xmlns="http://www.w3.org/2000/svg" width="100" height="100" viewBox="0 0 100 100"><path fill="#e8bfba" d="M29 18.5L39.5 8L50 18.5L39.5 29ZM60.5 8L71 18.5L60.5 29L50 18.5ZM71 81.5L60.5 92L50 81.5L60.5 71ZM39.5 92L29 81.5L39.5 71L50 81.5ZM8 39.5L18.5 29L29 39.5L18.5 50ZM81.5 29L92 39.5L81.5 50L71 39.5ZM92 60.5L81.5 71L71 60.5L81.5 50ZM18.5 71L8 60.5L18.5 50L29 60.5Z"/><path fill="#d18075" d="M8 18.5L18.5 8L29 18.5L18.5 29ZM81.5 8L92 18.5L81.5 29L71 18.5ZM92 81.5L81.5 92L71 81.5L81.5 71ZM18.5 92L8 81.5L18.5 71L29 81.5Z"/><path fill="#545454" d="M29 29L50 29L50 50L29 50ZM36 48L48 48L48 36L36 36ZM71 29L71 50L50 50L50 29ZM52 36L52 48L64 48L64 36ZM71 71L50 71L50 50L71 50ZM64 52L52 52L52 64L64 64ZM29 71L29 50L50 50L50 71ZM48 64L48 52L36 52L36 64Z"/></svg>