<svg xmlns="http://www.w3.org/2000/svg" width="100" height="100" viewBox="0 0 100 100"><path fill="#c0e5b2" d="M50 8L50 29L29 29ZM71 29L50 29L50 8ZM50 92L50 71L71 71ZM29 71L50 71L50 92ZM29 29L29 50L8 50ZM92 50L71 50L71 29ZM71 71L71 50L92 50ZM8 50L29 50L29 71Z"/><path fill="#4e9932" d="M11.5 18.5a7,7 0 1,1 14,0a7,7 0 1,1 -14,0M74.5 18.5a7,7 0 1,1 14,0a7,7 0 1,1 -14,0M74.5 81.5a7,7 0 1,1 14,0a7,7 0 1,1 -14,0M11.5 81.5a7,7 0 1,1 14,0a7,7 0 1,1 -14,0"/><path fill="#81cc66" d="M50 29L50 45L40 29ZM71 50L55 50L71 40ZM50 71L50 55L60 71ZM29 50L45 50L29 60Z"/></svg>