<svg xmlns="http://www.w3.org/2000/svg" width="100" height="100" viewBox="0 0 100 100"><path fill="#e8bada" d="M29 8L50 8L50 29ZM71 8L71 29L50 29ZM71 92L50 92L50 71ZM29 92L29 71L50 71ZM8 29L29 29L29 50ZM92 29L92 50L71 50ZM92 71L71 71L71 50ZM8 71L8 50L29 50Z"/><path fill="#a83886" d="M8 8L29 8L29 18.5ZM92 8L92 29L81.5 29ZM92 92L71 92L71 81.5ZM8 92L8 71L18.5 71Z"/><path fill="#d175b5" d="M29 29L50 29L50 50L29 50ZM36 48L48 48L48 36L36 36ZM71 29L71 50L50 50L50 29ZM52 36L52 48L64 48L64 36ZM71 71L50 71L50 50L71 50ZM64 52L52 52L52 64L64 64ZM29 71L29 50L50 50L50 71ZM48 64L48 52L36 52L36 64Z"/></svg>