<svg xmlns="http://www.w3.org/2000/svg" width="100" height="100" viewBox="0 0 100 100"><path fill="#4c4c4c" d="M50 29L29 29L29 8ZM50 29L50 8L71 8ZM50 71L71 71L71 92ZM50 71L50 92L29 92ZM29 50L8 50L8 29ZM71 50L71 29L92 29ZM71 50L92 50L92 71ZM29 50L29 71L8 71Z"/><path fill="#ccc466" d="M29 29L8 29L8 18.5ZM71 29L71 8L81.5 8ZM71 71L92 71L92 81.5ZM29 71L29 92L18.5 92Z"/><path fill="#e5e1b2" d="M37 42a5,5 0 1,1 10,0a5,5 0 1,1 -10,0M53 42a5,5 0 1,1 10,0a5,5 0 1,1 -10,0M53 58a5,5 0 1,1 10,0a5,5 0 1,1 -10,0M37 58a5,5 0 1,1 10,0a5,5 0 1,1 -10,0"/></svg>