<svg xmlns="http://www.w3.org/2000/svg" width="100" height="100" viewBox="0 0 100 100"><path fill="#dfe5b2" d="M50 8L50 29L39.5 29ZM71 29L50 29L50 18.5ZM50 92L50 71L60.5 71ZM29 71L50 71L50 81.5ZM29 29L29 50L18.5 50ZM92 50L71 50L71 39.5ZM71 71L71 50L81.5 50ZM8 50L29 50L29 60.5Z"/><path fill="#bfcc66" d="M8 8L29 8L29 29ZM92 8L92 29L71 29ZM92 92L71 92L71 71ZM8 92L8 71L29 71ZM29 29L50 29L50 43.7L37.4 37.4L43.7 50L29 50ZM71 29L71 50L56.3 50L62.6 37.4L50 43.7L50 29ZM71 71L50 71L50 56.3L62.6 62.6L56.3 50L71 50ZM29 71L29 50L43.7 50L37.4 62.6L50 56.3L50 71Z"/></svg>