<svg xmlns="http://www.w3.org/2000/svg" width="100" height="100" viewBox="0 0 100 100"><path fill="#dee5b2" d="M50 8L50 29L29 29ZM71 29L50 29L50 8ZM50 92L50 71L71 71ZM29 71L50 71L50 92ZM29 29L29 50L8 50ZM92 50L71 50L71 29ZM71 71L71 50L92 50ZM8 50L29 50L29 71Z"/><path fill="#becc66" d="M8 8L29 8L29 29ZM92 8L92 29L71 29ZM92 92L71 92L71 71ZM8 92L8 71L29 71Z"/><path fill="#4c4c4c" d="M29 29L50 29L50 50L29 50ZM42.5 47.9L47.9 37L37 37ZM71 29L71 50L50 50L50 29ZM52.1 42.5L63 47.9L63 37ZM71 71L50 71L50 50L71 50ZM57.6 52.1L52.1 63L63 63ZM29 71L29 50L50 50L50 71ZM47.9 57.6L37 52.1L37 63Z"/></svg>