<svg xmlns="http://www.w3.org/2000/svg" width="100" height="100" viewBox="0 0 100 100"><path fill="#e8c2ba" d="M50 18.5L39.5 29L29 18.5L39.5 8ZM60.5 29L50 18.5L60.5 8L71 18.5ZM50 81.5L60.5 71L71 81.5L60.5 92ZM39.5 71L50 81.5L39.5 92L29 81.5ZM29 39.5L18.5 50L8 39.5L18.5 29ZM81.5 50L71 39.5L81.5 29L92 39.5ZM71 60.5L81.5 50L92 60.5L81.5 71ZM18.5 50L29 60.5L18.5 71L8 60.5Z"/><path fill="#d18575" d="M29 8L29 29L18.5 29ZM92 29L71 29L71 18.5ZM71 92L71 71L81.5 71ZM8 71L29 71L29 81.5Z"/><path fill="#a84b38" d="M29 29L50 29L50 32.4L41.2 50L29 50ZM71 29L71 50L67.6 50L50 41.2L50 29ZM71 71L50 71L50 67.6L58.8 50L71 50ZM29 71L29 50L32.4 50L50 58.8L50 71Z"/></svg>