<svg xmlns="http://www.w3.org/2000/svg" width="100" height="100" viewBox="0 0 100 100"><path fill="#e5e5e5" d="M29 8L50 8L50 18.5ZM71 8L71 29L60.5 29ZM71 92L50 92L50 81.5ZM29 92L29 71L39.5 71ZM8 29L29 29L29 39.5ZM92 29L92 50L81.5 50ZM92 71L71 71L71 60.5ZM8 71L8 50L18.5 50Z"/><path fill="#4c4c4c" d="M8 29L8 8L18.5 8ZM71 8L92 8L92 18.5ZM92 71L92 92L81.5 92ZM29 92L8 92L8 81.5Z"/><path fill="#66cc8d" d="M36 36L50 36L50 50L36 50ZM64 36L64 50L50 50L50 36ZM64 64L50 64L50 50L64 50ZM36 64L36 50L50 50L50 64Z"/></svg>